<svg width="26" height="13" viewBox="0 0 26 13" fill="none" xmlns="http://www.w3.org/2000/svg">
<g id="Group 7724">
<path id="Vector" d="M23.9348 7L26 7L23.0652 13L21 13L23.9348 7Z" fill="white" fill-opacity="0.2"/>
<path id="Vector_2" d="M13.5218 7L16 7L12.4782 13L10 13L13.5218 7Z" fill="white" fill-opacity="0.5"/>
<path id="Vector_3" d="M2.93485 7L5 7L2.06515 13L4.56561e-07 13L2.93485 7Z" fill="white"/>
<path id="Vector_4" d="M21 -7.44244e-08L23.0779 -2.56082e-07L26 5L23.9221 5L21 -7.44244e-08Z" fill="white" fill-opacity="0.2"/>
<path id="Vector_5" d="M10 1.29984e-08L12.4935 -2.04991e-07L16 5L13.5065 5L10 1.29984e-08Z" fill="white" fill-opacity="0.5"/>
<path id="Vector_6" d="M6.88821e-08 -7.44244e-08L2.07792 -2.56082e-07L5 5L2.92208 5L6.88821e-08 -7.44244e-08Z" fill="white"/>
</g>
</svg>
