<svg width="158" height="246" viewBox="0 0 158 246" fill="none" xmlns="http://www.w3.org/2000/svg">
<path d="M15.9334 -6.96473e-07L139.45 0.000131234C144.37 0.000131019 149.088 1.95789 152.567 5.44273C156.046 8.92756 158 13.6537 158 18.582L157.999 230.661L142.067 245.999L18.5503 245.999C13.6304 245.999 8.91209 244.042 5.43323 240.557C1.95438 237.072 2.15423e-07 232.345 0 227.417L0.00143288 15.3381L15.9334 -6.96473e-07Z" fill="white" fill-opacity="0.1"/>
<path d="M120.688 228C120.324 228 119.997 227.911 119.708 227.734C119.419 227.557 119.185 227.323 119.008 227.034C118.831 226.745 118.742 226.423 118.742 226.068V225.466H120.576V225.998C120.576 226.045 120.59 226.087 120.618 226.124C120.655 226.152 120.697 226.166 120.744 226.166H126.722C126.769 226.166 126.811 226.152 126.848 226.124C126.885 226.087 126.904 226.045 126.904 225.998V223.982C126.904 223.935 126.885 223.898 126.848 223.87C126.811 223.833 126.769 223.814 126.722 223.814H120.478V221.98H126.33C126.377 221.98 126.414 221.966 126.442 221.938C126.479 221.901 126.498 221.859 126.498 221.812V219.922C126.498 219.875 126.479 219.838 126.442 219.81C126.414 219.773 126.377 219.754 126.33 219.754H120.744C120.697 219.754 120.655 219.773 120.618 219.81C120.59 219.838 120.576 219.875 120.576 219.922V220.58H118.742V219.852C118.742 219.488 118.831 219.161 119.008 218.872C119.185 218.583 119.419 218.354 119.708 218.186C119.997 218.009 120.324 217.92 120.688 217.92H126.4C126.764 217.92 127.091 218.009 127.38 218.186C127.669 218.354 127.898 218.583 128.066 218.872C128.243 219.161 128.332 219.488 128.332 219.852V221.896C128.332 222.008 128.323 222.125 128.304 222.246C128.285 222.358 128.257 222.465 128.22 222.568C128.388 222.745 128.514 222.955 128.598 223.198C128.691 223.431 128.738 223.669 128.738 223.912V226.068C128.738 226.423 128.649 226.745 128.472 227.034C128.295 227.323 128.061 227.557 127.772 227.734C127.483 227.911 127.161 228 126.806 228H120.688ZM133.668 228C133.314 228 132.987 227.911 132.688 227.734C132.399 227.557 132.166 227.323 131.988 227.034C131.811 226.735 131.722 226.409 131.722 226.054V217.92H133.57V225.97C133.57 226.017 133.584 226.059 133.612 226.096C133.65 226.124 133.692 226.138 133.738 226.138H139.758C139.805 226.138 139.847 226.124 139.884 226.096C139.922 226.059 139.94 226.017 139.94 225.97V217.92H141.802V226.054C141.802 226.409 141.714 226.735 141.536 227.034C141.359 227.323 141.121 227.557 140.822 227.734C140.533 227.911 140.211 228 139.856 228H133.668Z" fill="white"/>
<g clip-path="url(#clip0_1395_3)">
<path d="M54.3588 72.4443L53.6385 72.8597L30.0001 86.579V114.865L54.3588 129L78.712 114.865V86.579L54.3588 72.4443ZM77.2769 87.421V87.5838L77.1319 87.3368L77.2769 87.421ZM53.6385 74.5101L54.3588 74.089L64.2294 79.8204L76.5567 86.9832L55.079 99.4507L54.3588 99.8661L53.6385 99.4507L32.1663 86.9832L53.6385 74.5101ZM53.6385 126.889L31.4403 113.978V88.2125L53.6385 101.09V126.889ZM55.079 126.889V101.118L55.7992 100.697L77.2769 88.235V114.006L76.5679 114.422L55.079 126.889Z" fill="white"/>
<path d="M78.0029 58.7194L53.6386 72.8653V74.5493L54.3588 74.1283L64.2294 79.8596L77.2827 87.4322V113.204V114.051L76.5736 114.467L78.0084 115.297L78.7174 114.888L102.362 101.163V72.8653L78.0029 58.7194ZM78.0029 60.4034L100.195 73.3144L78.0029 86.2254L55.8047 73.3144L78.0029 60.4034ZM100.893 100.321L78.7008 113.232V87.4603L100.893 74.5493V100.321ZM100.893 73.8813L100.748 73.6343L100.893 73.7129V73.8813ZM55.0567 99.49L54.3364 99.9054L53.6162 99.49V101.174L55.0567 102.01V101.174L55.7769 100.753L55.0567 100.338V99.49Z" fill="white"/>
<path d="M101.647 45L77.2827 59.1347V60.8188L78.003 60.3978L87.8736 66.1291L100.927 73.7017V99.4732V100.321L100.218 100.736L101.653 101.567L102.362 101.157L126.006 87.4322V59.1515L101.647 45ZM101.647 46.684L123.839 59.595L101.647 72.506L79.4489 59.595L101.647 46.684ZM124.537 86.6014L102.345 99.5124V73.741L124.537 60.83V86.6014ZM124.537 60.162L124.392 59.915L124.537 59.9936V60.162ZM78.7008 85.7706L77.9806 86.186L77.2604 85.7706V87.4547L78.7008 88.2911V87.4547L79.4208 87.0337L78.7008 86.6183V85.7706Z" fill="white"/>
</g>
<defs>
<clipPath id="clip0_1395_3">
<rect width="96" height="84" fill="white" transform="translate(30 45)"/>
</clipPath>
</defs>
</svg>
