<svg width="158" height="246" viewBox="0 0 158 246" fill="none" xmlns="http://www.w3.org/2000/svg">
<path d="M15.9334 -6.96473e-07L139.45 0.000131234C144.37 0.000131019 149.088 1.95789 152.567 5.44273C156.046 8.92756 158 13.6537 158 18.582L157.999 230.661L142.067 245.999L18.5503 245.999C13.6304 245.999 8.91209 244.042 5.43323 240.557C1.95438 237.072 2.15423e-07 232.345 0 227.417L0.00143288 15.3381L15.9334 -6.96473e-07Z" fill="white" fill-opacity="0.1"/>
<path d="M105.234 226V218.566L104.436 219.546H102.014L105.052 215.92H107.082V226H105.234ZM109.625 226V224.166H111.459V226H109.625ZM116.171 226C115.816 226 115.494 225.911 115.205 225.734C114.915 225.557 114.682 225.323 114.505 225.034C114.327 224.745 114.239 224.423 114.239 224.068V223.41H116.073V223.998C116.073 224.045 116.087 224.087 116.115 224.124C116.152 224.152 116.194 224.166 116.241 224.166H122.219C122.265 224.166 122.303 224.152 122.331 224.124C122.368 224.087 122.387 224.045 122.387 223.998V221.954C122.387 221.907 122.368 221.87 122.331 221.842C122.303 221.805 122.265 221.786 122.219 221.786H114.239V215.92H124.221V217.754H116.241C116.194 217.754 116.152 217.773 116.115 217.81C116.087 217.838 116.073 217.875 116.073 217.922V219.77C116.073 219.817 116.087 219.859 116.115 219.896C116.152 219.924 116.194 219.938 116.241 219.938H122.289C122.643 219.938 122.965 220.027 123.255 220.204C123.553 220.372 123.787 220.605 123.955 220.904C124.132 221.193 124.221 221.515 124.221 221.87V224.068C124.221 224.423 124.132 224.745 123.955 225.034C123.777 225.323 123.544 225.557 123.255 225.734C122.965 225.911 122.643 226 122.289 226H116.171ZM129.164 226C128.809 226 128.482 225.911 128.184 225.734C127.894 225.557 127.661 225.323 127.484 225.034C127.306 224.735 127.218 224.409 127.218 224.054V215.92H129.066V223.97C129.066 224.017 129.08 224.059 129.108 224.096C129.145 224.124 129.187 224.138 129.234 224.138H135.254C135.3 224.138 135.342 224.124 135.38 224.096C135.417 224.059 135.436 224.017 135.436 223.97V215.92H137.298V224.054C137.298 224.409 137.209 224.735 137.032 225.034C136.854 225.323 136.616 225.557 136.318 225.734C136.028 225.911 135.706 226 135.352 226H129.164Z" fill="white"/>
<g clip-path="url(#clip0_1396_4)">
<path d="M101.465 76.6331L72.1099 59.681L70.2126 58.5878L54.6194 67.6141L38.037 77.2167V114.43L70.2494 133.03L86.8318 123.427L102.455 114.408V77.1945L101.465 76.6331ZM100.513 78.2877V78.5093L100.328 78.1843L100.513 78.2877ZM54.6194 69.8079L57.484 68.1533L70.2494 60.7668L99.5972 77.7559L84.8901 86.2135L70.1978 94.6933L56.4724 86.7675L54.5679 85.6669L40.85 77.7411L54.6194 69.8079ZM69.2969 130.252L39.9419 113.263V79.3588L54.6194 87.8311L56.5243 88.9243L69.2969 96.3109V130.252ZM100.55 113.263L87.7842 120.65L84.9345 122.297L71.2018 130.23V96.3109L85.8793 87.8311L87.7842 86.7306L100.55 79.344V113.263Z" fill="white"/>
<path d="M86.795 49L54.6194 67.5993V69.8153L57.4839 68.1607L70.2494 60.7742L72.147 59.681L86.8318 51.1938L116.187 68.1829L101.502 76.6627L99.5972 77.7633L84.8901 86.2135L85.8278 86.7527V87.8533L87.7327 86.7527L100.498 79.3662L102.403 78.2656L117.088 69.7858V103.697L102.403 112.185L100.498 113.285L87.7327 120.672L84.8829 122.319L86.7802 123.42L102.403 114.401L118.985 104.798V67.5772L86.795 49ZM117.102 68.9438L116.911 68.6187L117.102 68.7221V68.9438Z" fill="white"/>
</g>
<defs>
<clipPath id="clip0_1396_4">
<rect width="81" height="84" fill="white" transform="translate(38 49)"/>
</clipPath>
</defs>
</svg>
