<svg width="158" height="246" viewBox="0 0 158 246" fill="none" xmlns="http://www.w3.org/2000/svg">
<path d="M15.9334 -6.96473e-07L139.45 0.000131234C144.37 0.000131019 149.088 1.95789 152.567 5.44273C156.046 8.92756 158 13.6537 158 18.582L157.999 230.661L142.067 245.999L18.5503 245.999C13.6304 245.999 8.91209 244.042 5.43323 240.557C1.95438 237.072 2.15423e-07 232.345 0 227.417L0.00143288 15.3381L15.9334 -6.96473e-07Z" fill="white" fill-opacity="0.1"/>
<path d="M116.798 226V222.136C116.798 221.772 116.887 221.445 117.064 221.156C117.241 220.867 117.475 220.638 117.764 220.47C118.053 220.293 118.375 220.204 118.73 220.204H124.778C124.825 220.204 124.862 220.19 124.89 220.162C124.927 220.125 124.946 220.083 124.946 220.036V217.922C124.946 217.875 124.927 217.838 124.89 217.81C124.862 217.773 124.825 217.754 124.778 217.754H118.8C118.753 217.754 118.711 217.773 118.674 217.81C118.646 217.838 118.632 217.875 118.632 217.922V218.608H116.798V217.852C116.798 217.488 116.887 217.161 117.064 216.872C117.241 216.583 117.475 216.354 117.764 216.186C118.053 216.009 118.375 215.92 118.73 215.92H124.848C125.203 215.92 125.525 216.009 125.814 216.186C126.113 216.354 126.346 216.583 126.514 216.872C126.691 217.161 126.78 217.488 126.78 217.852V220.12C126.78 220.465 126.691 220.787 126.514 221.086C126.346 221.375 126.113 221.609 125.814 221.786C125.525 221.963 125.203 222.052 124.848 222.052H118.8C118.753 222.052 118.711 222.071 118.674 222.108C118.646 222.136 118.632 222.173 118.632 222.22V223.998C118.632 224.045 118.646 224.087 118.674 224.124C118.711 224.152 118.753 224.166 118.8 224.166H126.78V226H116.798ZM131.723 226C131.368 226 131.042 225.911 130.743 225.734C130.454 225.557 130.22 225.323 130.043 225.034C129.866 224.735 129.777 224.409 129.777 224.054V215.92H131.625V223.97C131.625 224.017 131.639 224.059 131.667 224.096C131.704 224.124 131.746 224.138 131.793 224.138H137.813C137.86 224.138 137.902 224.124 137.939 224.096C137.976 224.059 137.995 224.017 137.995 223.97V215.92H139.857V224.054C139.857 224.409 139.768 224.735 139.591 225.034C139.414 225.323 139.176 225.557 138.877 225.734C138.588 225.911 138.266 226 137.911 226H131.723Z" fill="white"/>
<g clip-path="url(#clip0_1396_5)">
<path d="M63.6154 65.2155L62.7693 65.7061L35.0001 81.9083V115.314L63.6154 132.007L92.2243 115.314V81.9083L63.6154 65.2155ZM90.5058 82.9027V83.0949L90.3351 82.8033L90.5058 82.9027ZM62.7366 67.6551L63.5824 67.1579L75.1782 73.9265L89.6597 82.3856L64.4285 97.1095L63.5824 97.6001L62.7366 97.1095L37.5118 82.3856L62.7366 67.6551ZM62.7366 129.514L36.6593 114.266V83.8374L62.7366 99.0453V129.514ZM64.4285 129.514V99.0917L65.2746 98.5945L90.5058 83.8772V114.313L89.6729 114.803L64.4285 129.514Z" fill="white"/>
<path d="M91.3913 49L62.7693 65.6928V67.6816L63.6154 67.1844L75.2112 73.9531L90.5452 82.8961V113.332V114.333L89.7123 114.823L91.3977 115.804L92.2307 115.32L120.007 99.1116V65.7127L91.3913 49ZM91.3913 50.9888L117.462 66.2365L91.3913 81.4841L65.314 66.2365L91.3913 50.9888ZM118.282 98.1305L92.2111 113.378V82.9425L118.282 67.6949V98.1305ZM118.282 66.906L118.111 66.6143L118.282 66.7071V66.906ZM64.4352 97.1493L63.5891 97.6399L62.743 97.1493V99.1381L64.4352 100.126V99.1381L65.2813 98.6409L64.4352 98.1504V97.1493Z" fill="white"/>
</g>
<defs>
<clipPath id="clip0_1396_5">
<rect width="85" height="83" fill="white" transform="translate(35 49)"/>
</clipPath>
</defs>
</svg>
