<svg width="158" height="246" viewBox="0 0 158 246" fill="none" xmlns="http://www.w3.org/2000/svg">
<path d="M15.9334 -6.96473e-07L139.45 0.000131234C144.37 0.000131019 149.088 1.9579 152.567 5.44273C156.046 8.92756 158 13.6537 158 18.582L157.999 230.661L142.067 245.999L18.5503 245.999C13.6304 245.999 8.91209 244.042 5.43323 240.557C1.95438 237.072 2.15423e-07 232.345 0 227.417L0.00143288 15.3381L15.9334 -6.96473e-07Z" fill="white" fill-opacity="0.1"/>
<g clip-path="url(#clip0_1391_2)">
<path d="M39.1224 65.6556V108.344L76.0056 129.694L112.878 108.344V65.6556L76.0056 44.3055L39.1224 65.6556Z" stroke="white" stroke-width="2" stroke-miterlimit="10"/>
<path d="M39.1224 65.6556L76.0056 86.9944V129.694V86.9944L112.878 65.6556" stroke="white" stroke-width="2" stroke-miterlimit="10"/>
</g>
<path d="M125.234 226V218.566L124.436 219.546H122.014L125.052 215.92H127.082V226H125.234ZM131.571 226C131.216 226 130.889 225.911 130.591 225.734C130.301 225.557 130.068 225.323 129.891 225.034C129.713 224.735 129.625 224.409 129.625 224.054V215.92H131.473V223.97C131.473 224.017 131.487 224.059 131.515 224.096C131.552 224.124 131.594 224.138 131.641 224.138H137.661C137.707 224.138 137.749 224.124 137.787 224.096C137.824 224.059 137.843 224.017 137.843 223.97V215.92H139.705V224.054C139.705 224.409 139.616 224.735 139.439 225.034C139.261 225.323 139.023 225.557 138.725 225.734C138.435 225.911 138.113 226 137.759 226H131.571Z" fill="white"/>
<defs>
<clipPath id="clip0_1391_2">
<rect width="76" height="88" fill="white" transform="translate(38 43)"/>
</clipPath>
</defs>
</svg>
