<svg width="158" height="246" viewBox="0 0 158 246" fill="none" xmlns="http://www.w3.org/2000/svg">
<path d="M15.9334 -6.96473e-07L139.45 0.000131234C144.37 0.000131019 149.088 1.95789 152.567 5.44273C156.046 8.92756 158 13.6537 158 18.582L157.999 230.661L142.067 245.999L18.5503 245.999C13.6304 245.999 8.91209 244.042 5.43323 240.557C1.95438 237.072 2.15423e-07 232.345 0 227.417L0.00143288 15.3381L15.9334 -6.96473e-07Z" fill="white" fill-opacity="0.1"/>
<path d="M112.234 228V220.566L111.436 221.546H109.014L112.052 217.92H114.082V228H112.234ZM116.667 228V224.136C116.667 223.772 116.755 223.445 116.933 223.156C117.11 222.867 117.343 222.638 117.633 222.47C117.922 222.293 118.244 222.204 118.599 222.204H124.647C124.693 222.204 124.731 222.19 124.759 222.162C124.796 222.125 124.815 222.083 124.815 222.036V219.922C124.815 219.875 124.796 219.838 124.759 219.81C124.731 219.773 124.693 219.754 124.647 219.754H118.669C118.622 219.754 118.58 219.773 118.543 219.81C118.515 219.838 118.501 219.875 118.501 219.922V220.608H116.667V219.852C116.667 219.488 116.755 219.161 116.933 218.872C117.11 218.583 117.343 218.354 117.633 218.186C117.922 218.009 118.244 217.92 118.599 217.92H124.717C125.071 217.92 125.393 218.009 125.683 218.186C125.981 218.354 126.215 218.583 126.383 218.872C126.56 219.161 126.649 219.488 126.649 219.852V222.12C126.649 222.465 126.56 222.787 126.383 223.086C126.215 223.375 125.981 223.609 125.683 223.786C125.393 223.963 125.071 224.052 124.717 224.052H118.669C118.622 224.052 118.58 224.071 118.543 224.108C118.515 224.136 118.501 224.173 118.501 224.22V225.998C118.501 226.045 118.515 226.087 118.543 226.124C118.58 226.152 118.622 226.166 118.669 226.166H126.649V228H116.667ZM131.592 228C131.237 228 130.911 227.911 130.612 227.734C130.323 227.557 130.089 227.323 129.912 227.034C129.735 226.735 129.646 226.409 129.646 226.054V217.92H131.494V225.97C131.494 226.017 131.508 226.059 131.536 226.096C131.573 226.124 131.615 226.138 131.662 226.138H137.682C137.729 226.138 137.771 226.124 137.808 226.096C137.845 226.059 137.864 226.017 137.864 225.97V217.92H139.726V226.054C139.726 226.409 139.637 226.735 139.46 227.034C139.283 227.323 139.045 227.557 138.746 227.734C138.457 227.911 138.135 228 137.78 228H131.592Z" fill="white"/>
<g clip-path="url(#clip0_1396_7)">
<path d="M68.5105 117.9L67.9627 117.585V118.219L67.4234 118.535L67.9712 118.85V119.485L68.5105 119.17L69.0498 118.859V117.58L68.5105 117.9ZM68.5105 98.335L67.9627 98.0197V98.6545L68.5062 98.3393L69.0413 98.6503V98.024L68.5105 98.335ZM67.9584 118.215L67.4191 118.531L67.9669 118.846V117.568L67.9584 118.215ZM51.0748 108.416L51.6141 108.1L51.0705 107.789V107.159L50.5227 107.474L49.9792 107.163L33.0955 97.3635V96.7245L32.0001 97.3593V118.829L49.9834 129.242L50.527 129.557L51.6226 128.922L51.079 128.607V127.964L51.0748 108.416ZM49.9792 127.976L33.0955 118.177V98.6204L49.9792 108.394V127.976ZM67.9584 117.563V118.198L67.4191 118.513L67.9669 118.829V117.551L67.9584 117.563ZM68.5105 97.0568L67.9669 96.7415L51.6396 87.2828L51.096 86.9675L50.5525 86.6565L50.0047 86.9718L49.4569 87.2913L50.0047 87.6066V88.2543L50.544 87.9432L51.0918 88.2585L58.0515 92.2934L67.4361 97.73L67.9754 98.041V98.6801L68.519 98.3648L69.054 98.6758V97.3976L68.5105 97.0568ZM67.9584 117.563V118.198L67.4191 118.513L67.9669 118.829V117.551L67.9584 117.563ZM67.9584 117.563V118.198L67.4191 118.513L67.9669 118.829V117.551L67.9584 117.563Z" fill="white"/>
<path d="M67.4234 97.7044L58.0389 92.2678L67.4149 97.7044L67.8395 97.9558L67.9499 98.0197L67.4234 97.7044Z" fill="white"/>
<path d="M51.0789 107.802V107.172L50.5311 107.487L49.9877 107.176V108.454L50.5355 108.769L51.0789 109.085V108.45L51.6182 108.135L51.0789 107.802ZM85.3855 87.2913L68.5104 97.0653L85.3898 87.2956L85.3855 87.2913ZM85.3855 87.2913L68.5104 97.0653L85.3898 87.2956L85.3855 87.2913ZM86.4981 86.6608L85.9503 86.3455L77.517 81.4372L69.6143 76.857L69.0665 76.5417L68.5231 76.2307L67.9796 76.5417L67.4275 76.8612L50.544 86.6352L50.0003 86.9505V88.2287L50.5396 87.9176L51.0874 88.2329L58.0473 92.2678L67.4318 97.7044L67.9711 98.0154V98.6545L68.5146 98.3393L68.6718 98.4287L69.0497 98.6503V98.0112L69.1642 97.9473L69.4105 97.8067L69.5888 97.7002L85.9206 88.2372L86.4682 87.9176L87.0034 88.2287V86.9505L86.4981 86.6608ZM68.5104 97.0653L51.6352 87.2913L57.3083 84.0021L67.9711 77.8242L68.5104 77.5089L69.0497 77.8199L76.0094 81.8547L77.6655 82.8134L82.6042 85.6765L85.3813 87.2871L68.5104 97.0653ZM85.8313 87.5512L85.9418 87.6109V87.7387L85.8313 87.5512ZM85.3855 87.2913L68.5104 97.0653L85.3898 87.2956L85.3855 87.2913ZM86.4937 107.483L85.9459 107.163V107.802L85.4025 108.117L69.0665 117.58L68.5272 117.891L67.9796 117.576V118.211L67.4403 118.526L67.9838 118.842L68.5316 119.157L69.0709 118.846L69.6228 118.526L85.9629 109.059L86.5022 108.744L87.0415 108.428V107.15L86.4937 107.483ZM68.5146 98.3393L68.6718 98.4287L69.0497 98.6503V98.0154L68.5104 98.3265L67.9626 98.0112V98.646L68.5061 98.3307L68.5146 98.3393Z" fill="white"/>
<path d="M69.0581 97.3849V96.7756L68.5105 97.0909L67.9669 96.7756V98.0538L68.5147 98.3691L68.6718 98.4585L69.0498 98.6801V98.0452L69.1643 97.9771L69.4106 97.8365L69.5889 97.73L69.0581 97.3849ZM86.4683 87.9219L85.9292 87.6109V88.2542L86.4768 87.9347L86.4683 87.9219ZM104.448 97.0695L103.9 96.7542V97.3891L103.361 97.7044L87.0289 107.163L86.4897 107.474L85.9419 107.155V107.794L85.4067 108.109L85.946 108.424L86.392 108.684L86.4853 108.739L87.0246 108.428L87.5682 108.113L103.9 98.6503L104.439 98.3393L104.983 98.0197V96.7415L104.448 97.0695ZM87.0034 88.2287L86.4683 87.9219L87.0034 88.2329V88.2287ZM86.4556 87.9219L85.9163 87.6109V88.2542L86.4641 87.9347L86.4556 87.9219ZM69.0455 97.3849V96.7756L68.5062 97.0866L67.9584 97.4019V98.0324L68.5062 98.3477L69.0455 98.0367L69.1601 97.9728L69.4065 97.8322L69.5848 97.7257L69.0455 97.3849ZM104.465 76.2435L103.908 75.9239L96.732 71.7698L87.5809 66.4695L87.0289 66.1499L86.4897 65.8346L85.9419 66.1542L85.3984 66.4695L68.5105 76.269L67.9669 76.58V77.8582L68.5105 77.5429L69.0498 77.854L76.0095 81.8846L77.6655 82.8432L85.3899 87.3127L85.9292 87.6279V88.267L86.4768 87.9475L87.0119 88.2585V87.6237L87.5512 87.3127L103.887 77.8497L104.435 77.5344L104.974 77.8454V76.5672L104.465 76.2435ZM87.0289 86.337L86.4811 86.6522L85.9333 86.337L77.5171 81.4372L69.6144 76.857L80.1242 70.7599L85.9375 67.3941L86.4853 67.0745L87.0246 67.3855L95.6405 72.3833L100.486 75.191L103.352 76.8527L91.8868 83.5079L87.0289 86.337ZM103.908 77.3171L103.802 77.1339L103.908 77.1893V77.3171ZM69.0455 96.7585L68.5062 97.0695L67.9584 97.3849V98.0154L68.5062 98.3307L69.0455 98.0197L69.1601 97.9558L69.4065 97.8152L69.5848 97.7086L69.037 97.3933L69.0455 96.7585Z" fill="white"/>
<path d="M69.6059 118.531L85.9419 109.072V127.989V109.059L69.6059 118.531ZM69.6059 118.531L85.9419 109.072V127.989V109.059L69.6059 118.531ZM86.4938 107.487L85.946 107.172V107.802L85.4026 108.117L69.0666 117.58L68.5273 117.891L67.9797 117.576L51.6438 108.117L51.1004 107.806V107.167L50.0089 107.798V129.267L68.5358 139.996L87.0586 129.267V107.798L86.4938 107.487ZM85.9419 108.441V108.565L85.8313 108.377L85.9419 108.441ZM67.9627 138.411L51.6227 128.948L51.079 128.633V109.076L67.4149 118.535L67.9627 118.85V138.411ZM69.0581 138.411V118.85L69.6018 118.531L85.9375 109.072V128.633L85.3984 128.948L69.0581 138.411ZM67.9584 98.1475V98.024V98.6545L68.502 98.3393L68.659 98.4287L69.037 98.646V98.0197L69.398 97.8067L69.5763 97.7002L69.037 97.3849L68.4977 97.0738L67.9499 97.3891L67.4149 97.7044L67.8396 97.9558L67.9584 98.1475ZM67.9584 98.0197V98.6545L68.502 98.3393L67.9584 98.0197ZM69.0455 98.0197L68.5062 98.3307L68.6633 98.4202L69.0413 98.6375V98.0069L69.0455 98.0197ZM69.6018 118.526L85.9375 109.068V127.985V109.055L69.6018 118.526ZM69.6018 118.526L85.9375 109.068V127.985V109.055L69.6018 118.526Z" fill="white"/>
<path d="M69.1727 97.9515L69.0581 98.0154L69.4191 97.8024L69.1727 97.9515ZM85.9375 107.159V107.798L85.394 108.113L85.9292 107.798V107.159H85.9375ZM69.1727 97.9515L69.0581 98.0154L68.519 98.3265L67.9712 98.0112V98.646L68.5146 98.3307L68.6718 98.4202L69.0498 98.6375V98.0112L69.4106 97.7981L69.1727 97.9515ZM85.9375 107.159V107.798L85.394 108.113L85.9292 107.798V107.159H85.9375ZM69.0581 117.585L68.519 117.896L67.9712 117.58V118.859L68.519 119.174L69.0581 119.489V118.854L69.6017 118.535L69.0581 118.219V117.585ZM68.5146 98.3393L68.6718 98.4287L69.0498 98.646V98.0197L69.4106 97.8067L69.1642 97.9473L69.0498 98.0112L68.5105 98.3222L67.9627 98.0069V98.6417L68.5061 98.3265L68.5146 98.3393ZM85.9248 107.159V107.798L85.3814 108.113L85.9163 107.798V107.159H85.9248ZM85.9248 107.159V107.798L85.3814 108.113L85.9163 107.798V107.159H85.9248ZM85.9248 107.159V107.798L85.3814 108.113L85.9163 107.798V107.159H85.9248ZM85.9248 87.6109V88.2542L86.4641 87.939L85.9248 87.6109ZM104.456 97.0695L103.908 96.7542V97.3891L103.369 97.7044L87.0374 107.163L86.4981 107.474L85.9503 107.155V107.794L85.4067 108.109L85.946 108.424V127.985V128.628L85.4067 128.944L86.4981 129.574L87.0374 129.263L104.477 119.161L105.017 118.846V97.3806L104.456 97.0695ZM103.9 98.0197V98.1475L103.789 97.96L103.9 98.0197ZM87.0204 108.433L87.5638 108.117L103.895 98.6545V118.215L87.016 128.015L87.0204 108.433ZM85.9163 88.2372L86.4556 87.9219L86.9908 88.2287V87.6024L87.5298 87.2828L86.9864 86.9675L86.4515 86.6608L85.9078 86.9718L85.3729 87.2828L68.4935 97.0525L67.9498 97.3678V98.646L68.4935 98.3307L68.6504 98.4202L69.0284 98.6375V98.0112L69.3894 97.7981L69.5677 97.6916L82.4427 90.2312L85.8952 88.2287L85.9163 88.2372ZM85.9163 87.6109V88.2542L86.4556 87.939L85.9163 87.6109ZM85.9163 107.159V107.798L85.3729 108.113L85.9078 107.798V107.159H85.9163Z" fill="white"/>
<path d="M87.0416 107.802V107.172L86.5023 107.483L85.9545 107.167V108.446L86.4005 108.701L86.4938 108.757L87.0246 109.072V108.437L87.1011 108.394L87.5682 108.117L87.0416 107.802ZM121.904 86.3369V86.976L121.357 87.2913L105.025 96.7756L104.486 97.0866L103.938 96.7713V97.4061L103.399 97.7214L103.938 98.0324V117.593V118.237L103.399 118.552L104.486 119.182L105.025 118.871L123.009 108.454V86.976L121.904 86.3369ZM121.904 87.6151V87.743L121.794 87.5555L121.904 87.6151ZM121.904 107.811L105.025 117.589V98.0282L121.904 88.2287V107.811ZM103.921 77.8327L104.469 77.5174L105.008 77.8284V77.1765L105.556 76.8612L105 76.5374L104.46 76.2264L103.365 76.8612L91.8698 83.5121L87.0246 86.3199L86.4768 86.6352L85.9333 86.9462V88.2244L86.4811 87.9049L87.0161 88.2159V87.5896L87.5554 87.27L103.883 77.8071L103.921 77.8327Z" fill="white"/>
<path d="M68.5105 97.0738L67.9669 96.7628V97.3976L67.4319 97.7129L67.8566 97.9643L67.9669 98.0282V98.6631L68.5105 98.3435L69.0455 98.0324V96.7542L68.5105 97.0738ZM68.5105 97.0738L67.9669 96.7628V97.3976L67.4319 97.7129L67.9712 98.024L68.519 98.3393L69.0581 98.0282V96.75L68.5105 97.0738ZM50.5227 87.9219L49.9834 88.2329V107.163L50.527 107.474L51.0748 107.159V88.2542L50.5227 87.9219ZM68.5105 76.2477L67.9669 75.9324L50.5312 65.8346L49.9834 66.1499L32.0043 76.563V98.0324L33.0999 98.6673L49.9834 108.441L50.527 108.757L51.0705 108.446L51.6183 108.126L51.0833 107.815V107.172V87.6109L51.6268 87.2913L51.0833 86.976V86.3455L50.5355 86.6608L49.9919 86.3497L33.6603 76.8868L49.9919 67.4196L50.5397 67.1L58.0474 71.4502L67.4234 76.8826L67.9627 77.1936V77.8327L68.5062 77.5131L69.0455 77.8284V76.5502L68.5105 76.2477ZM49.4314 87.2913L49.9792 87.6066V107.167L33.0955 97.3678V77.8114L49.4314 87.2913ZM68.5062 97.0909L67.9627 96.7798V97.4147L67.4276 97.73L67.9669 98.041L68.5147 98.3563L69.054 98.0452V96.767L68.5147 97.0781L68.5062 97.0909ZM50.5227 87.9432L49.9834 88.2542V107.184L50.527 107.495L51.0748 107.18V88.2542L50.5227 87.9432ZM67.9584 96.7756V97.4104L67.4234 97.7257L67.8481 97.9771L67.9584 98.041V96.7628V96.7756ZM67.9584 96.7756V97.4104L67.4234 97.7257L67.8481 97.9771L67.9584 98.041V96.7628V96.7756Z" fill="white"/>
<path d="M67.4234 76.8783L58.0389 71.4417L67.4149 76.8783L51.079 86.3412V86.976L51.6268 87.2913L67.9627 77.8327V77.1765L67.4234 76.8783ZM67.9584 77.3044L67.848 77.1169L67.9584 77.1808V77.3044Z" fill="white"/>
<path d="M67.9584 96.7756V97.4104L67.4234 97.7257L67.9627 98.041V96.7628L67.9584 96.7756ZM51.0748 86.3625L50.527 86.6778L49.9834 86.3668V87.645L50.5227 87.956L51.0748 88.2756V87.6407L51.6183 87.3212L51.0748 87.0058V86.3625ZM86.4938 65.8517L69.6103 56.0734L68.5105 55.4386L67.9627 55.7539L49.9792 66.167V67.4452L50.527 67.1256L58.0345 71.4758L67.4106 76.9081L67.9499 77.2191V77.8582L68.4935 77.5387L69.0328 77.854V77.1765L69.5721 76.8655L80.0861 70.7685L85.8993 67.4026L86.4471 67.083L86.9864 67.3941V66.1159L86.4938 65.8517ZM67.9627 57.0151L68.5105 56.6955L76.018 61.0499L77.674 62.0086L85.3899 66.4823L68.5105 76.2818L51.6268 66.4823L67.9627 57.0151ZM85.8272 66.7379L85.9375 66.7976V66.9253L85.8272 66.7379ZM85.9418 86.9974L85.4025 87.3084L69.0581 96.7756L68.519 97.0866L67.9712 97.4019V98.0324L68.519 98.3477L69.0581 98.0367L69.1728 97.9728L69.4191 97.8322L69.5974 97.7257L82.4726 90.2653L85.9248 88.2628V87.6279L85.3855 87.3127L85.9418 86.9974ZM86.4938 86.6778L85.946 86.3583V86.9974L85.4067 87.3084L69.0581 96.7756L68.519 97.0866L67.9754 96.7756V97.4104L67.4404 97.7257L67.9797 98.041L68.5273 98.3563L69.0666 98.0452L69.1813 97.9771L69.4276 97.8365L69.6059 97.73L82.4811 90.2695L85.9333 88.267L86.4726 87.9518L87.0076 87.6407V86.3625L86.4938 86.6778Z" fill="white"/>
<path d="M104.477 55.4173L86.4937 45L68.5104 55.4131L67.9626 55.7284V57.0066L68.5104 56.687L76.0179 61.0371L77.674 61.9958L85.3983 66.4695L85.9418 66.7848V67.4239L86.4896 67.1043L87.0289 67.4153V66.7805L87.5723 66.4652L103.904 57.0023L104.46 56.6827L104.999 56.9938V55.7156L104.477 55.4173ZM69.6102 56.0479L86.4937 46.2484L103.373 56.0479L86.4937 65.8261L69.6102 56.0479ZM103.921 56.474L103.811 56.2865L103.921 56.3461V56.474ZM104.477 76.2264L103.921 75.9069V76.5417L103.377 76.857L91.9122 83.5079L87.067 86.3156L86.5277 86.6267L85.9799 86.3072V86.9463L85.445 87.2573L85.9799 87.5683L86.5192 87.8836L87.0544 87.5768L87.5937 87.2615L103.921 77.7986L104.469 77.479L105.008 77.168V75.8898L104.477 76.2264ZM69.058 76.5417V75.9111L68.5146 76.2264L67.9711 75.9111V77.1893L68.5104 77.5003L69.0497 77.8156V77.1765L69.5888 76.8612L69.058 76.5417Z" fill="white"/>
<path d="M85.9375 88.2542L82.4852 90.2567L85.9419 88.2585V107.176V88.2542H85.9375ZM69.1728 97.9643L69.0581 98.0282L69.4191 97.8151L69.1728 97.9643ZM68.5062 97.0823L67.9627 96.7713V97.4019L68.5105 97.0866L68.5062 97.0823ZM86.4982 86.6736L85.9545 86.3583L69.6144 76.8953L69.0666 76.5758L68.5273 76.2647L67.9797 76.58L67.4404 76.8953L51.096 86.3583L50.5526 86.6736L50.0048 86.9888V108.458L50.5482 108.769L51.096 109.089L67.9797 118.867L68.519 119.178L69.0581 118.867L85.9419 109.068L86.4897 108.744L87.0205 108.437V86.976L86.4982 86.6736ZM51.6353 87.3041L67.9584 77.8454L68.502 77.5259L69.0413 77.8369L76.001 81.8675L85.3685 87.2999L69.0581 96.7756L68.519 97.0866L67.9754 96.7756L51.648 87.3169L51.6353 87.3041ZM85.9419 87.7302L85.8357 87.5512L85.9419 87.6109V87.7302ZM51.6142 108.109L51.079 107.798V88.2542L67.4106 97.7086L67.8352 97.9601L67.9457 98.024V117.585L51.6098 108.126L51.6142 108.109ZM69.0581 98.0154L69.4191 97.8024L69.5974 97.6959L82.4726 90.2355L85.9292 88.2372V107.798L85.3941 108.109L69.0498 117.572L69.0581 98.0154ZM82.6128 85.6595L76.018 81.8249L85.3856 87.2573L82.6128 85.6595ZM85.4067 87.27L69.0581 96.7756L68.519 97.0866L67.9754 96.7756V98.0538L68.5232 98.3691L69.0625 98.058L69.1771 97.9941L69.4235 97.8535L69.6018 97.747L82.4767 90.2866L85.9292 88.284V87.6492L85.4067 87.27ZM85.9375 87.5938V87.7089L85.8313 87.53L85.9375 87.5938ZM69.0498 98.0069L68.5105 98.3179L67.9627 98.0026L67.4234 97.6916L58.0389 92.255L67.4149 97.6916L67.8396 97.943L67.9499 98.0069V117.568L68.4977 117.883L69.037 117.572V98.0069H69.0498ZM69.1728 97.9345L69.0581 97.9984L69.4191 97.7853L69.1728 97.9345ZM85.9375 88.2244L82.4852 90.2269L85.9419 88.2287V107.146V88.2542L85.9375 88.2244Z" fill="white"/>
<path d="M85.9375 86.3327V86.9718L85.3984 87.2828L85.9333 86.9718V86.3327H85.9375ZM69.0581 97.4104V96.7756L68.519 97.0866L67.9712 97.4019V98.0325L68.519 98.3477L69.0581 98.0367L69.1727 97.9728L69.4191 97.8322L69.5974 97.7257L69.0581 97.4104ZM104.477 76.2647L103.921 75.9452L96.7446 71.7868L87.5937 66.4865L87.0416 66.167L86.5023 65.856L85.9545 66.1713L85.411 66.4865L68.5231 76.2861L67.9797 76.6013V77.8795L68.5231 77.56L69.0624 77.871L76.0223 81.9016L82.6169 85.7362L85.394 87.3467L85.9292 87.6577V107.218V107.862L85.394 108.173L85.9375 108.484L86.3835 108.739L86.4768 108.795L87.0076 108.484L87.0841 108.441L87.5512 108.164L103.883 98.7057L104.422 98.3904L104.961 98.0751V76.6099L104.477 76.2647ZM103.815 77.1552L103.921 77.2149V77.3384L103.811 77.1552H103.815ZM85.9375 67.4367L86.4853 67.1171L87.0246 67.4281L93.9844 71.463L95.6405 72.4216L100.486 75.2294L103.352 76.891L91.8868 83.5419L87.0416 86.3497L86.5023 86.6608L85.9545 86.3412L77.5171 81.4372L69.6102 76.8612L85.9375 67.4367ZM87.0416 107.189V87.6279L87.5809 87.3127L103.908 77.8497V97.4104L103.369 97.7214L87.0416 107.189ZM69.0581 96.7756L68.519 97.0866L67.9712 97.4019V98.0325L68.519 98.3477L69.0581 98.0367L69.1727 97.9728L69.4191 97.8322L69.5974 97.7257L69.0581 97.4104V96.7756ZM85.9375 86.3497V86.9888L85.3984 87.2999L85.9333 86.9888V86.3497H85.9375ZM85.9375 86.3497V86.9888L85.3984 87.2999L85.9333 86.9888V86.3497H85.9375ZM69.0581 97.4275V96.7756L68.519 97.0866L67.9753 96.7756V98.0538L68.519 98.3691L68.676 98.4585L69.0624 98.6886V98.0538L69.4234 97.8407L69.6017 97.7342L69.0581 97.4275Z" fill="white"/>
<path d="M87.0415 86.976V86.3455L86.5066 86.6565L85.9629 86.3412V87.6194L86.5022 87.9304L87.0374 88.25V87.6152L87.5767 87.2956L87.0415 86.976ZM87.0415 86.976V86.3455L86.5066 86.6565L85.9629 86.3412V87.6194L86.5022 87.9304L87.0374 88.2372V87.6066L87.5767 87.2913L87.0415 86.976ZM103.921 56.998L87.5893 66.4609L87.0459 66.7762V67.4111L94.0056 71.446L95.6618 72.4046L100.507 75.2124L103.382 76.874L103.925 76.5588V75.9197L96.7489 71.7655L87.5978 66.4652L103.925 57.0023L103.921 56.998ZM105.016 55.7198L104.477 55.4088L86.4937 65.8176L85.9459 66.1329V67.4111L86.4937 67.0915L87.033 67.4026L93.9929 71.4374L95.649 72.3961L100.494 75.2038L103.369 76.8655L103.908 77.1765V96.7756V97.4147L103.373 97.73L103.904 98.041L104.443 98.3563L104.982 98.0452L121.862 88.2457L122.957 87.6109V66.1457L105.016 55.7198ZM121.921 66.7805V66.9083L121.811 66.7208L121.921 66.7805ZM103.938 75.9239L96.7616 71.7698L87.6107 66.4695L103.938 57.0066L104.494 56.687L105.034 56.998L121.374 66.4737L105.034 75.9409L104.494 76.2519L103.938 75.9239ZM121.921 86.976L121.374 87.2913L105.025 96.7756V77.1765L105.573 76.8612L121.904 67.3983L121.921 86.976ZM87.0585 86.3455L86.5236 86.6565L85.9799 86.3412V87.6194L86.5192 87.9304L87.0544 88.2372V87.6109L87.5937 87.2913L87.0544 86.976L87.0585 86.3455Z" fill="white"/>
</g>
<defs>
<clipPath id="clip0_1396_7">
<rect width="91" height="95" fill="white" transform="translate(32 45)"/>
</clipPath>
</defs>
</svg>
