<svg width="158" height="246" viewBox="0 0 158 246" fill="none" xmlns="http://www.w3.org/2000/svg">
<path d="M15.9334 -6.96473e-07L139.45 0.000131234C144.37 0.000131019 149.088 1.95789 152.567 5.44273C156.046 8.92756 158 13.6537 158 18.582L157.999 230.661L142.067 245.999L18.5503 245.999C13.6304 245.999 8.91209 244.042 5.43323 240.557C1.95438 237.072 2.15423e-07 232.345 0 227.417L0.00143288 15.3381L15.9334 -6.96473e-07Z" fill="white" fill-opacity="0.1"/>
<path d="M116.73 228C116.375 228 116.053 227.911 115.764 227.734C115.475 227.557 115.241 227.323 115.064 227.034C114.887 226.745 114.798 226.423 114.798 226.068V219.852C114.798 219.488 114.887 219.161 115.064 218.872C115.241 218.583 115.475 218.354 115.764 218.186C116.053 218.009 116.375 217.92 116.73 217.92H123.184V219.754H116.8C116.753 219.754 116.711 219.773 116.674 219.81C116.646 219.838 116.632 219.875 116.632 219.922V221.756C116.632 221.803 116.646 221.845 116.674 221.882C116.711 221.91 116.753 221.924 116.8 221.924H122.848C123.203 221.924 123.525 222.013 123.814 222.19C124.113 222.358 124.346 222.591 124.514 222.89C124.691 223.179 124.78 223.501 124.78 223.856V226.068C124.78 226.423 124.691 226.745 124.514 227.034C124.337 227.323 124.103 227.557 123.814 227.734C123.525 227.911 123.203 228 122.848 228H116.73ZM116.8 226.166H122.778C122.825 226.166 122.862 226.152 122.89 226.124C122.927 226.087 122.946 226.045 122.946 225.998V223.94C122.946 223.893 122.927 223.856 122.89 223.828C122.862 223.791 122.825 223.772 122.778 223.772H116.632V225.998C116.632 226.045 116.646 226.087 116.674 226.124C116.711 226.152 116.753 226.166 116.8 226.166ZM129.586 228C129.232 228 128.905 227.911 128.606 227.734C128.317 227.557 128.084 227.323 127.906 227.034C127.729 226.735 127.64 226.409 127.64 226.054V217.92H129.488V225.97C129.488 226.017 129.502 226.059 129.53 226.096C129.568 226.124 129.61 226.138 129.656 226.138H135.676C135.723 226.138 135.765 226.124 135.802 226.096C135.84 226.059 135.858 226.017 135.858 225.97V217.92H137.72V226.054C137.72 226.409 137.632 226.735 137.454 227.034C137.277 227.323 137.039 227.557 136.74 227.734C136.451 227.911 136.129 228 135.774 228H129.586Z" fill="white"/>
<g clip-path="url(#clip0_1399_9)">
<path d="M67.3311 106.78L66.681 106.406V107.16L66.0409 107.534L66.6911 107.908V108.661L67.3412 108.282L67.981 107.913V106.396L67.3311 106.78ZM67.3311 82.0723L66.6859 81.6982L45.993 69.7183L45.3429 70.0923L24.005 82.4463V107.918L45.348 120.272L45.993 120.646L47.2933 119.893L46.6483 119.519V118.755V95.5486L47.2984 95.1694L46.6483 94.7954V94.0473L45.9982 94.4213L45.348 94.0473L25.9655 82.8205L45.348 71.5885L45.9982 71.2094L54.9081 76.3705L66.0458 82.8205L66.6859 83.1895V83.9477L67.336 83.5686L67.9761 83.9426V82.4262L67.3311 82.0723ZM45.3379 95.5486V118.755L25.3001 107.129V83.9274L45.3379 95.5486ZM66.6758 107.175L66.0358 107.549L66.6859 107.923V106.406L66.6758 107.175ZM66.6758 106.422V107.175L66.0358 107.549L66.6859 107.923V106.406L66.6758 106.422Z" fill="white"/>
<path d="M66.041 82.8205L54.9033 76.3705L66.0309 82.8205L46.6432 94.0473V94.7954L47.2933 95.1694L66.681 83.9477V83.1895L66.041 82.8205ZM66.6759 83.326L66.5449 83.1035L66.6759 83.1793V83.326Z" fill="white"/>
<path d="M88.0238 94.0422V94.8004L87.3788 95.1745L67.9912 106.401L67.3511 106.77L66.7012 106.396V107.149L66.0612 107.524L66.7061 107.898L67.3563 108.272L67.9963 107.903L68.6514 107.524L88.044 96.2916L88.684 95.9176L89.3241 95.5435V94.027L88.684 94.396L88.0238 94.0422ZM88.674 69.7132L68.6364 58.087L67.3312 57.3339L66.681 57.7079L45.338 70.0923V71.6088L45.9881 71.2297L54.8981 76.3906L66.0358 82.8406L66.6759 83.2096V83.9679L67.326 83.5888L67.9661 83.9628V83.2046L68.6061 82.8356L87.9886 71.6088L88.6388 71.2297L89.2788 71.5986V70.0822L88.674 69.7132ZM47.2933 70.4613L66.681 59.2294L67.3312 58.8503L76.2411 64.0265L78.2066 65.1638L87.3638 70.4714L67.3312 82.0976L47.2933 70.4613ZM88.0137 70.9668L87.8828 70.7444L88.0137 70.8152V70.9668ZM46.6383 94.7752V94.027L45.9881 94.4011L45.338 94.027V95.5435L46.6331 96.2916V95.5384L47.2833 95.1593L46.6383 94.7752Z" fill="white"/>
<path d="M67.9811 82.4414V81.7185L67.3312 82.0925L66.686 81.7185V83.2349L67.3361 83.609L67.9761 83.983V83.2299L68.6162 82.8558L67.9811 82.4414ZM109.357 81.6881V82.4414L108.712 82.8154L89.3293 94.0372L88.6892 94.4062L88.0391 94.027V94.7853L87.399 95.1593L88.044 95.5334L88.684 95.9074L89.3241 95.5384L89.9693 95.1644L109.352 83.9376L110.642 83.1895V81.673L110.002 82.042L109.357 81.6881ZM110.017 57.3592L88.6739 45L67.3312 57.3541L66.681 57.7281V59.2446L67.3312 58.8655L76.2411 64.0265L78.2066 65.1638L87.3788 70.4714L88.0238 70.8455V71.6037L88.6739 71.2246L89.314 71.5936V70.8404L89.9592 70.4664L109.347 59.2395L110.007 58.8604L110.647 59.2294V57.713L110.017 57.3592ZM68.6364 58.1073L88.6739 46.4811L108.707 58.1073L88.6739 69.7334L68.6364 58.1073ZM109.357 58.6128L109.226 58.3903L109.357 58.4611V58.6128Z" fill="white"/>
<path d="M68.6312 107.529L88.0189 96.3068V118.75V96.2916L68.6312 107.529ZM88.6739 94.4264L88.0238 94.0523L68.6312 82.8255L67.981 82.4463L67.3412 82.0774L66.6911 82.4514L66.051 82.8255L46.6533 94.0523L45.3582 94.8005V120.272L67.3461 133L89.3292 120.272V94.8005L88.6739 94.4264ZM88.0189 95.5587V95.7053L87.8877 95.4828L88.0189 95.5587ZM67.9712 83.9325L76.231 88.7144L87.3485 95.1593L67.9611 106.386L67.321 106.755L66.6709 106.381L47.2933 95.1593L66.6709 83.9325L67.321 83.5534L67.9712 83.9325ZM66.681 131.109L47.2884 119.883L46.6432 119.509V96.3068L66.0309 107.529L66.681 107.903V131.109ZM67.981 131.109V107.903L68.6262 107.524L88.0137 96.3017V119.509L87.3739 119.883L67.981 131.109ZM68.6312 107.524L88.0189 96.3017V118.745V96.2865L68.6312 107.524Z" fill="white"/>
<path d="M88.0136 94.0372V94.7954L87.3687 95.1694L88.0087 94.7954V94.0372H88.0136ZM110.017 82.0672L109.357 81.6881L89.9793 70.4664L89.324 70.0872L88.684 69.7183L88.0338 70.0923L87.3889 70.4664L67.3412 82.0925L66.696 82.4666V83.983L67.3461 83.6039L67.9861 83.9729L76.2462 88.7549L87.3738 95.1947L88.0188 95.5688V118.776V119.539L87.3788 119.913L88.6739 120.661L89.3139 120.292L110.012 108.307L110.652 107.933V82.4666L110.017 82.0672ZM109.357 83.3461L109.226 83.1237L109.357 83.1945V83.3461ZM88.0188 94.0422L68.6412 82.8255L88.0188 71.5986L88.6689 71.2195L89.309 71.5885L97.5691 76.3755L99.5345 77.5129L108.692 82.8205L89.309 94.0422L88.6689 94.4112L88.0188 94.0321V94.0422ZM89.324 95.5587L89.9692 95.1846L109.352 83.9578V107.165L89.3191 118.791L89.324 95.5587ZM88.0136 94.0422V94.8004L87.3687 95.1745L88.0087 94.8004V94.0422H88.0136ZM88.0136 94.0422V94.8004L87.3687 95.1745L88.0087 94.8004V94.0422H88.0136ZM67.981 107.185V106.437L67.3412 106.806L66.691 106.432V107.948L67.3412 108.322L67.9911 108.701V107.948L68.6363 107.569L67.981 107.185Z" fill="white"/>
<path d="M89.3241 94.8004V94.0523L88.684 94.4213L88.0339 94.0473V95.5637L88.6739 95.9327L89.314 96.3118V95.5587L89.9592 95.1796L89.3241 94.8004ZM109.357 81.6578L89.9794 70.4411L109.357 81.6629V81.6578ZM109.357 59.2092L89.9693 70.4361L109.347 59.2092H109.357ZM110.657 57.6927L110.017 57.3237L88.6739 69.6728L88.0238 70.0468V71.5633L88.6739 71.1842L89.314 71.5532L97.5741 76.3401L99.5395 77.4774L108.702 82.78L109.357 83.1591V106.366V107.129L108.717 107.503L110.007 108.251L110.647 107.882L131.99 95.5233V70.0923L110.657 57.6927ZM110.017 82.0319L109.357 81.6528L89.9794 70.4361L109.357 59.2092L110.017 58.8301L110.657 59.1991L130.05 70.4411L110.657 81.7185L110.017 82.0319ZM130.68 94.7651L110.647 106.366V83.1591L130.68 71.5329V94.7651ZM130.68 70.9567L130.549 70.7343L130.68 70.8051V70.9567Z" fill="white"/>
</g>
<defs>
<clipPath id="clip0_1399_9">
<rect width="108" height="88" fill="white" transform="translate(24 45)"/>
</clipPath>
</defs>
</svg>
