<svg width="23" height="25" viewBox="0 0 23 25" fill="none" xmlns="http://www.w3.org/2000/svg">
<g clip-path="url(#clip0_460_4005)">
<path d="M4.31009 10.3738L-1.81381e-06 10.3738L6.12521 1.07097e-06L10.4353 1.82457e-06L4.31009 10.3738Z" fill="white"/>
<path d="M10.3712 25L6.06107 25L0 14.7454L4.31009 14.7454L10.3712 25Z" fill="white"/>
<path d="M16.8042 6.36603C18.0309 6.36603 19.23 6.72174 20.25 7.38817C21.2699 8.0546 22.0649 9.00181 22.5343 10.11C23.0037 11.2183 23.1265 12.4377 22.8872 13.6142C22.6479 14.7907 22.0572 15.8714 21.1898 16.7196C20.3224 17.5678 19.2173 18.1454 18.0142 18.3795C16.8111 18.6135 15.5641 18.4934 14.4308 18.0343C13.2975 17.5753 12.3288 16.7979 11.6473 15.8005C10.9658 14.8031 10.602 13.6306 10.602 12.431C10.6037 10.823 11.2577 9.2813 12.4205 8.14425C13.5833 7.00721 15.1598 6.36769 16.8042 6.36603ZM16.8042 15.0401C17.3335 15.0401 17.8508 14.8866 18.2908 14.5989C18.7308 14.3113 19.0736 13.9024 19.2758 13.4242C19.4781 12.9459 19.5306 12.4197 19.4269 11.9122C19.3232 11.4047 19.0678 10.9387 18.6932 10.5731C18.3185 10.2076 17.8413 9.95903 17.3221 9.85882C16.8028 9.75861 16.2649 9.81131 15.7763 10.0102C15.2877 10.2091 14.8704 10.5453 14.5773 10.9763C14.2842 11.4072 14.1284 11.9135 14.1297 12.431C14.1398 13.1181 14.426 13.7737 14.9265 14.2561C15.427 14.7385 16.1015 15.0088 16.8042 15.0088L16.8042 15.0401Z" fill="white"/>
</g>
<defs>
<clipPath id="clip0_460_4005">
<rect width="23" height="25" fill="white"/>
</clipPath>
</defs>
</svg>
