<svg width="123" height="32" viewBox="0 0 123 32" fill="none" xmlns="http://www.w3.org/2000/svg">
<g clip-path="url(#clip0_448_3954)">
<path d="M12.4484 26.9615H5.06461V0.0166016H0V31.9632H15.353" fill="white"/>
<path d="M47.0536 0.0166016V5.14631H28.5118L25.4878 0.0166016H47.0536Z" fill="white"/>
<path d="M47.0536 27.0449V31.9632H25.4878L25.8971 31.2733L28.3924 27.0449H47.0536Z" fill="white"/>
<path d="M47.0539 13.6812H25.4824V18.5549H47.0539V13.6812Z" fill="white"/>
<path d="M123 22.8001C122.997 24.2358 122.651 25.6508 121.989 26.9321C121.328 28.2133 120.368 29.325 119.189 30.1784C118.009 31.0317 116.642 31.6029 115.197 31.8462C113.751 32.0895 112.267 31.9982 110.864 31.5796L111.046 31.2736L113.627 26.9061H113.78C114.89 26.9006 115.954 26.4749 116.749 25.7183C117.545 24.9616 118.01 23.9328 118.048 22.8476C118.085 21.7623 117.692 20.7051 116.951 19.8975C116.209 19.09 115.177 18.5949 114.07 18.5161H113.78H113.485H105.322C103.676 18.453 102.076 17.9694 100.68 17.1134C99.2837 16.2575 98.1407 15.0589 97.3644 13.6367C96.9612 12.907 96.6629 12.1263 96.4777 11.3167C96.0042 9.26885 96.2567 7.12424 97.1939 5.23559C97.2227 5.17091 97.255 5.10776 97.2906 5.04642C98.3079 3.10671 99.9937 1.58186 102.049 0.741801C104.105 -0.0982606 106.398 -0.19936 108.522 0.456393L106.095 4.56795L105.805 5.05198V5.0965L105.72 5.24116H105.658C104.519 5.24116 103.428 5.68371 102.623 6.47147C101.818 7.25923 101.366 8.32766 101.366 9.44172C101.366 10.5558 101.818 11.6242 102.623 12.412C103.428 13.1997 104.519 13.6423 105.658 13.6423H114.019C114.633 13.6673 115.242 13.753 115.838 13.8982C117.877 14.3847 119.69 15.5259 120.988 17.1395C122.287 18.7532 122.995 20.7462 123 22.8001Z" fill="white"/>
<path d="M73.5191 0C76.749 0 79.9064 0.937477 82.592 2.69387C85.2775 4.45026 87.3707 6.94669 88.6067 9.86747C89.8427 12.7882 90.1661 16.0022 89.536 19.1028C88.9059 22.2035 87.3505 25.0517 85.0667 27.2871C82.7828 29.5226 79.8729 31.045 76.7051 31.6617C73.5373 32.2785 70.2537 31.962 67.2697 30.7521C64.2856 29.5423 61.7351 27.4935 59.9407 24.8649C58.1463 22.2363 57.1885 19.1459 57.1885 15.9844C57.1885 13.8853 57.6109 11.8068 58.4316 9.86747C59.2523 7.92814 60.4552 6.16603 61.9716 4.68173C63.4881 3.19744 65.2883 2.02004 67.2697 1.21675C69.251 0.413455 71.3746 0 73.5191 0ZM62.3724 15.9844C62.3713 18.1425 63.0241 20.2525 64.2482 22.0474C65.4724 23.8424 67.2129 25.2416 69.2495 26.0683C71.2862 26.8949 73.5276 27.1118 75.6903 26.6914C77.8529 26.2711 79.8396 25.2324 81.399 23.7068C82.9585 22.1811 84.0207 20.2371 84.4512 18.1206C84.8818 16.004 84.6614 13.81 83.8179 11.8161C82.9744 9.82214 81.5457 8.11784 79.7125 6.91875C77.8793 5.71966 75.724 5.07964 73.5191 5.07964C70.5638 5.07964 67.7295 6.22835 65.6393 8.27324C63.549 10.3181 62.374 13.0918 62.3724 15.9844Z" fill="white"/>
</g>
<defs>
<clipPath id="clip0_448_3954">
<rect width="123" height="31.98" fill="white"/>
</clipPath>
</defs>
</svg>
