<svg width="23" height="25" viewBox="0 0 23 25" fill="none" xmlns="http://www.w3.org/2000/svg">
<g clip-path="url(#clip0_460_4043)">
<path d="M18.6899 14.6262L23 14.6262L16.8748 25L12.5647 25L18.6899 14.6262Z" fill="white"/>
<path d="M12.6288 -2.81402e-06L16.9389 -2.43722e-06L23 10.2546L18.6899 10.2546L12.6288 -2.81402e-06Z" fill="white"/>
<path d="M6.19576 18.634C4.96909 18.634 3.76998 18.2783 2.75003 17.6118C1.73009 16.9454 0.93514 15.9982 0.465712 14.89C-0.00371604 13.7817 -0.126548 12.5623 0.112764 11.3858C0.352076 10.2093 0.942785 9.12861 1.81017 8.28041C2.67756 7.43221 3.78269 6.85457 4.98579 6.62055C6.1889 6.38653 7.43594 6.50664 8.56924 6.96569C9.70254 7.42473 10.6712 8.2021 11.3527 9.19948C12.0342 10.1969 12.3979 11.3694 12.3979 12.569C12.3963 14.177 11.7423 15.7187 10.5795 16.8557C9.41673 17.9928 7.84016 18.6323 6.19576 18.634ZM6.19577 9.95987C5.66651 9.95987 5.14917 10.1134 4.7092 10.4011C4.26923 10.6887 3.92643 11.0976 3.72418 11.5758C3.52194 12.0541 3.46936 12.5803 3.57308 13.0878C3.6768 13.5953 3.93216 14.0613 4.30685 14.4269C4.68153 14.7924 5.15869 15.041 5.67793 15.1412C6.19717 15.2414 6.73514 15.1887 7.22374 14.9898C7.71234 14.7909 8.1296 14.4547 8.42272 14.0237C8.71583 13.5928 8.87161 13.0865 8.87034 12.569C8.86023 11.8819 8.57399 11.2263 8.07351 10.7439C7.57302 10.2615 6.89849 9.99115 6.19577 9.99122L6.19577 9.95987Z" fill="white"/>
</g>
<defs>
<clipPath id="clip0_460_4043">
<rect width="23" height="25" fill="white" transform="translate(23 25) rotate(-180)"/>
</clipPath>
</defs>
</svg>
