<svg width="39" height="37" viewBox="0 0 39 37" fill="none" xmlns="http://www.w3.org/2000/svg">
<path d="M5.50056 34V24.608H0.796563V22.48H12.3166V24.608H7.62856V34H5.50056ZM15.7052 34C15.2999 34 14.9265 33.8987 14.5852 33.696C14.2545 33.4933 13.9879 33.2267 13.7852 32.896C13.5825 32.5547 13.4812 32.1813 13.4812 31.776V24.704C13.4812 24.2987 13.5825 23.9307 13.7852 23.6C13.9879 23.2587 14.2545 22.9867 14.5852 22.784C14.9265 22.5813 15.2999 22.48 15.7052 22.48H22.7772C23.1825 22.48 23.5505 22.5813 23.8812 22.784C24.2225 22.9867 24.4945 23.2587 24.6972 23.6C24.8999 23.9307 25.0012 24.2987 25.0012 24.704V31.776C25.0012 32.1813 24.8999 32.5547 24.6972 32.896C24.4945 33.2267 24.2225 33.4933 23.8812 33.696C23.5505 33.8987 23.1825 34 22.7772 34H15.7052ZM15.7852 31.872H22.6652C22.7185 31.872 22.7665 31.856 22.8092 31.824C22.8519 31.7813 22.8732 31.7333 22.8732 31.68V24.8C22.8732 24.7467 22.8519 24.704 22.8092 24.672C22.7665 24.6293 22.7185 24.608 22.6652 24.608H15.7852C15.7319 24.608 15.6839 24.6293 15.6412 24.672C15.6092 24.704 15.5932 24.7467 15.5932 24.8V31.68C15.5932 31.7333 15.6092 31.7813 15.6412 31.824C15.6839 31.856 15.7319 31.872 15.7852 31.872ZM26.7632 34V22.496H36.0432C36.4485 22.496 36.8219 22.5973 37.1632 22.8C37.5045 23.0027 37.7765 23.2747 37.9792 23.616C38.1819 23.9467 38.2832 24.3147 38.2832 24.72V27.824C38.2832 28.2293 38.1819 28.6027 37.9792 28.944C37.7765 29.2853 37.5045 29.5573 37.1632 29.76C36.8219 29.952 36.4485 30.048 36.0432 30.048L28.8752 30.064V34H26.7632ZM29.0672 27.92H35.9472C36.0005 27.92 36.0485 27.904 36.0912 27.872C36.1339 27.84 36.1552 27.7973 36.1552 27.744V24.8C36.1552 24.7467 36.1339 24.704 36.0912 24.672C36.0485 24.6293 36.0005 24.608 35.9472 24.608H29.0672C29.0139 24.608 28.9659 24.6293 28.9232 24.672C28.8912 24.704 28.8752 24.7467 28.8752 24.8V27.744C28.8752 27.7973 28.8912 27.84 28.9232 27.872C28.9659 27.904 29.0139 27.92 29.0672 27.92Z" fill="white"/>
<path d="M20.6259 4.31009L20.6259 -2.26727e-06L30.9998 6.12521L30.9998 10.4353L20.6259 4.31009Z" fill="white"/>
<path d="M6 10.3712L6 6.06107L16.2546 0L16.2546 4.31009L6 10.3712Z" fill="white"/>
</svg>
