{
	"asset":{
		"version":"2.0",
		"generator":"Created using the official Cinema 4D glTF Exporter 1.000x284978"
	},
	"scenes":[{
		"nodes":[0]
	}],
	"nodes":[{
		"name":"payload",
		"mesh":0
	}],
	"meshes":[{
		"name":"payload",
		"primitives":[{
			"attributes":{
				"POSITION":1,
				"NORMAL":2,
				"TEXCOORD_0":3
			},
			"indices":0
		}]
	}],
	"accessors":[{
		"bufferView":0,
		"componentType":5123,
		"type":"SCALAR",
		"count":2640,
		"byteOffset":0,
		"min":[0],
		"max":[1367]
	},
	{
		"bufferView":1,
		"componentType":5126,
		"type":"VEC3",
		"count":1368,
		"byteOffset":0,
		"min":[-4.949999809265137,
		10.536942481994629,
		-4.949999809265137],
		"max":[4.949999809265137,
		14.036999702453614,
		4.949999809265137]
	},
	{
		"bufferView":1,
		"componentType":5126,
		"type":"VEC3",
		"count":1368,
		"byteOffset":12,
		"min":[-1.0,
		-1.0,
		-1.0],
		"max":[1.0,
		1.0,
		1.0]
	},
	{
		"bufferView":1,
		"componentType":5126,
		"type":"VEC2",
		"count":1368,
		"byteOffset":24,
		"min":[-1.4210854715202005e-14,
		0.0],
		"max":[1.0,
		1.0]
	}],
	"bufferViews":[{
		"buffer":0,
		"byteOffset":0,
		"byteLength":5280,
		"target":34963
	},
	{
		"buffer":0,
		"byteOffset":5280,
		"byteLength":43776,
		"target":34962,
		"byteStride":32
	}],
	"buffers":[{
		"uri":"data:application/octet-stream;base64,",
		"byteLength":49056
	}]
}