{
	"asset":{
		"version":"2.0",
		"generator":"Created using the official Cinema 4D glTF Exporter 1.000x284978"
	},
	"scenes":[{
		"nodes":[0]
	}],
	"nodes":[{
		"name":"out",
		"translation":[2.484036445617676,
		0.0,
		0.0],
		"rotation":[0.0,
		0.0,
		0.0,
		-1.0],
		"scale":[1.0,
		1.0,
		1.0],
		"mesh":0
	}],
	"meshes":[{
		"name":"out",
		"primitives":[{
			"attributes":{
				"POSITION":1,
				"NORMAL":2,
				"TEXCOORD_0":3
			},
			"indices":0
		}]
	}],
	"accessors":[{
		"bufferView":0,
		"componentType":5123,
		"type":"SCALAR",
		"count":14586,
		"byteOffset":0,
		"min":[0],
		"max":[5925]
	},
	{
		"bufferView":1,
		"componentType":5126,
		"type":"VEC3",
		"count":5926,
		"byteOffset":0,
		"min":[-7.584036350250244,
		-3.0616169991140218e-16,
		-5.093016624450684],
		"max":[2.536417245864868,
		16.5,
		5.093016624450684]
	},
	{
		"bufferView":1,
		"componentType":5126,
		"type":"VEC3",
		"count":5926,
		"byteOffset":12,
		"min":[-1.0,
		-1.0,
		-1.0],
		"max":[1.0,
		1.0,
		1.0]
	},
	{
		"bufferView":1,
		"componentType":5126,
		"type":"VEC2",
		"count":5926,
		"byteOffset":24,
		"min":[-1.1980861813754019e-7,
		-0.000018227521650260316],
		"max":[1.0,
		1.0]
	}],
	"bufferViews":[{
		"buffer":0,
		"byteOffset":0,
		"byteLength":29172,
		"target":34963
	},
	{
		"buffer":0,
		"byteOffset":29172,
		"byteLength":189632,
		"target":34962,
		"byteStride":32
	}],
	"buffers":[{
		"uri":"data:application/octet-stream;base64,",
		"byteLength":218804
	}]
}