{
	"buffers":[{
		"uri":"data:application/octet-stream;base64,",
		"byteLength":461856
	}],
	"asset":{
		"version":"2.0",
		"generator":"Created using the official Cinema 4D glTF Exporter 1.000x284978"
	},
	"scenes":[{
		"nodes":[0]
	}],
	"nodes":[{
		"name":".1",
		"mesh":0
	}],
	"meshes":[{
		"name":".1",
		"primitives":[{
			"attributes":{
				"POSITION":1,
				"NORMAL":2,
				"TEXCOORD_0":3
			},
			"indices":0
		}]
	}],
	"accessors":[{
		"componentType":5123,
		"bufferView":0,
		"type":"SCALAR",
		"count":61440,
		"byteOffset":0,
		"min":[0],
		"max":[10592]
	},
	{
		"componentType":5126,
		"bufferView":1,
		"type":"VEC3",
		"count":10593,
		"byteOffset":0,
		"min":[-100.12179565429688,
		-100.38256072998047,
		-100.04596710205078],
		"max":[100.4500961303711,
		99.97004699707031,
		100.076171875]
	},
	{
		"componentType":5126,
		"bufferView":1,
		"type":"VEC3",
		"count":10593,
		"byteOffset":12,
		"min":[-0.9997603893280029,
		-0.9997679591178894,
		-0.9999807476997376],
		"max":[0.9997929334640503,
		0.9999760389328003,
		0.9999760985374451]
	},
	{
		"componentType":5126,
		"bufferView":1,
		"type":"VEC2",
		"count":10593,
		"byteOffset":24,
		"min":[0.0,
		0.0],
		"max":[1.0,
		0.8659999370574951]
	}],
	"bufferViews":[{
		"buffer":0,
		"byteOffset":0,
		"byteLength":122880,
		"target":34963
	},
	{
		"buffer":0,
		"byteOffset":122880,
		"byteLength":338976,
		"target":34962,
		"byteStride":32
	}]
}