<svg width="308" height="588" viewBox="0 0 308 588" fill="none" xmlns="http://www.w3.org/2000/svg">
<path d="M276.295 0.5L307 30.7573V556.952C307 564.926 303.94 572.571 298.497 578.205C293.055 583.838 285.678 587 277.99 587L31.705 587L1 556.742V30.5481C1 22.5734 4.0605 14.9288 9.5029 9.2949C14.9447 3.66163 22.3216 0.50016 30.0098 0.50016L276.295 0.5Z" fill="white" fill-opacity="0.1" stroke="#838484"/>
<path d="M277 305.57L284.2 305.57L284.2 306.89L281.27 306.89L281.27 311.61L284.2 311.61L284.2 312.93L277 312.93L277 311.61L279.93 311.61L279.93 306.89L277 306.89L277 305.57ZM277 315.926L284.2 315.926L284.2 317.236L277 317.236L277 315.926ZM277 321.595C277 321.341 277.063 321.108 277.19 320.895C277.317 320.688 277.483 320.521 277.69 320.395C277.903 320.268 278.137 320.205 278.39 320.205L282.81 320.205C283.063 320.205 283.293 320.268 283.5 320.395C283.713 320.521 283.883 320.688 284.01 320.895C284.137 321.108 284.2 321.341 284.2 321.595L284.2 326.005C284.2 326.258 284.137 326.491 284.01 326.705C283.883 326.918 283.713 327.088 283.5 327.215C283.293 327.341 283.063 327.405 282.81 327.405L282.25 327.405L282.25 326.075L282.75 326.075C282.783 326.075 282.81 326.061 282.83 326.035C282.857 326.008 282.87 325.978 282.87 325.945L282.87 321.645C282.87 321.611 282.857 321.581 282.83 321.555C282.81 321.535 282.783 321.525 282.75 321.525L278.45 321.525C278.417 321.525 278.387 321.535 278.36 321.555C278.34 321.581 278.33 321.611 278.33 321.645L278.33 325.945C278.33 325.978 278.34 326.008 278.36 326.035C278.387 326.061 278.417 326.075 278.45 326.075L279.75 326.075L279.75 324.445L281.08 324.445L281.08 327.405L278.39 327.405C278.137 327.405 277.903 327.341 277.69 327.215C277.483 327.088 277.317 326.918 277.19 326.705C277.063 326.491 277 326.258 277 326.005L277 321.595ZM277 330.515L284.2 330.515L284.2 331.835L281.27 331.835L281.27 336.555L284.2 336.555L284.2 337.875L277 337.875L277 336.555L279.93 336.555L279.93 331.835L277 331.835L277 330.515ZM277 346.088L284.2 346.088L284.2 352.718L282.87 352.718L282.87 347.418L281.27 347.418L281.27 351.678L279.93 351.678L279.93 347.418L278.33 347.418L278.33 352.718L277 352.718L277 346.088ZM277 355.744L282.81 355.744C283.063 355.744 283.293 355.807 283.5 355.934C283.713 356.061 283.883 356.227 284.01 356.434C284.137 356.647 284.2 356.881 284.2 357.134L284.2 361.544C284.2 361.797 284.137 362.031 284.01 362.244C283.883 362.457 283.713 362.627 283.5 362.754C283.293 362.881 283.063 362.944 282.81 362.944L277 362.944L277 361.614L279.42 361.614L279.42 357.064L277 357.064L277 355.744ZM280.74 357.064L280.74 361.614L282.75 361.614C282.783 361.614 282.81 361.601 282.83 361.574C282.857 361.547 282.87 361.517 282.87 361.484L282.87 357.184C282.87 357.151 282.857 357.121 282.83 357.094C282.81 357.074 282.783 357.064 282.75 357.064L280.74 357.064ZM277 371.823L279.59 369.653L279.59 371.383L277.37 373.263L277 373.263L277 371.823ZM277 366.083L284.19 366.083L284.19 371.883C284.19 372.137 284.127 372.37 284 372.583C283.873 372.797 283.703 372.967 283.49 373.093C283.283 373.22 283.053 373.283 282.8 373.283L280.86 373.283C280.607 373.283 280.373 373.22 280.16 373.093C279.947 372.967 279.777 372.797 279.65 372.583C279.53 372.37 279.47 372.137 279.47 371.883L279.46 367.403L277 367.403L277 366.083ZM280.8 367.523L280.8 371.823C280.8 371.857 280.81 371.887 280.83 371.913C280.85 371.94 280.877 371.953 280.91 371.953L282.75 371.953C282.783 371.953 282.81 371.94 282.83 371.913C282.857 371.887 282.87 371.857 282.87 371.823L282.87 367.523C282.87 367.49 282.857 367.46 282.83 367.433C282.81 367.413 282.783 367.403 282.75 367.403L280.91 367.403C280.877 367.403 280.85 367.413 280.83 367.433C280.81 367.46 280.8 367.49 280.8 367.523ZM277 378.915L282.87 378.915L282.87 375.975L284.2 375.975L284.2 383.175L282.87 383.175L282.87 380.245L277 380.245L277 378.915ZM277 385.933L284.2 385.933L284.2 387.253L281.27 387.253L281.27 391.973L284.2 391.973L284.2 393.293L277 393.293L277 391.973L279.93 391.973L279.93 387.253L277 387.253L277 385.933ZM277 402.856C277 402.602 277.063 402.369 277.19 402.156C277.317 401.949 277.483 401.782 277.69 401.656C277.903 401.529 278.137 401.466 278.39 401.466L282.81 401.466C283.063 401.466 283.293 401.529 283.5 401.656C283.713 401.782 283.883 401.949 284.01 402.156C284.137 402.369 284.2 402.602 284.2 402.856L284.2 407.276C284.2 407.529 284.137 407.759 284.01 407.966C283.883 408.179 283.713 408.349 283.5 408.476C283.293 408.602 283.063 408.666 282.81 408.666L278.39 408.666C278.137 408.666 277.903 408.602 277.69 408.476C277.483 408.349 277.317 408.179 277.19 407.966C277.063 407.759 277 407.529 277 407.276L277 402.856ZM278.33 402.906L278.33 407.206C278.33 407.239 278.34 407.269 278.36 407.296C278.387 407.322 278.417 407.336 278.45 407.336L282.75 407.336C282.783 407.336 282.81 407.322 282.83 407.296C282.857 407.269 282.87 407.239 282.87 407.206L282.87 402.906C282.87 402.872 282.857 402.842 282.83 402.816C282.81 402.796 282.783 402.786 282.75 402.786L278.45 402.786C278.417 402.786 278.387 402.796 278.36 402.816C278.34 402.842 278.33 402.872 278.33 402.906ZM277 417.507L279.59 415.337L279.59 417.067L277.37 418.947L277 418.947L277 417.507ZM277 411.767L284.19 411.767L284.19 417.567C284.19 417.82 284.127 418.054 284 418.267C283.873 418.48 283.703 418.65 283.49 418.777C283.283 418.904 283.053 418.967 282.8 418.967L280.86 418.967C280.607 418.967 280.373 418.904 280.16 418.777C279.947 418.65 279.777 418.48 279.65 418.267C279.53 418.054 279.47 417.82 279.47 417.567L279.46 413.087L277 413.087L277 411.767ZM280.8 413.207L280.8 417.507C280.8 417.54 280.81 417.57 280.83 417.597C280.85 417.624 280.877 417.637 280.91 417.637L282.75 417.637C282.783 417.637 282.81 417.624 282.83 417.597C282.857 417.57 282.87 417.54 282.87 417.507L282.87 413.207C282.87 413.174 282.857 413.144 282.83 413.117C282.81 413.097 282.783 413.087 282.75 413.087L280.91 413.087C280.877 413.087 280.85 413.097 280.83 413.117C280.81 413.144 280.8 413.174 280.8 413.207ZM277 422.049L284.2 422.049L284.2 427.569C284.2 427.822 284.137 428.052 284.01 428.259C283.883 428.472 283.713 428.642 283.5 428.769C283.293 428.896 283.063 428.959 282.81 428.959L281.4 428.959C281.313 428.959 281.23 428.952 281.15 428.939C281.07 428.926 280.993 428.902 280.92 428.869C280.767 428.982 280.607 429.072 280.44 429.139C280.273 429.212 280.107 429.249 279.94 429.249L278.39 429.249C278.137 429.249 277.903 429.186 277.69 429.059C277.483 428.932 277.317 428.762 277.19 428.549C277.063 428.336 277 428.102 277 427.849L277 422.049ZM278.33 423.489L278.33 427.789C278.33 427.822 278.34 427.852 278.36 427.879C278.387 427.906 278.417 427.919 278.45 427.919L279.88 427.919C279.913 427.919 279.94 427.906 279.96 427.879C279.987 427.852 280 427.822 280 427.789L280 423.489C280 423.456 279.987 423.426 279.96 423.399C279.94 423.379 279.913 423.369 279.88 423.369L278.45 423.369C278.417 423.369 278.387 423.379 278.36 423.399C278.34 423.426 278.33 423.456 278.33 423.489ZM281.33 423.489L281.33 427.509C281.33 427.542 281.34 427.569 281.36 427.589C281.387 427.609 281.417 427.619 281.45 427.619L282.75 427.619C282.783 427.619 282.81 427.609 282.83 427.589C282.857 427.569 282.87 427.542 282.87 427.509L282.87 423.489C282.87 423.456 282.857 423.426 282.83 423.399C282.81 423.379 282.783 423.369 282.75 423.369L281.45 423.369C281.417 423.369 281.387 423.379 281.36 423.399C281.34 423.426 281.33 423.456 281.33 423.489ZM277 432.199L284.2 432.199L284.2 433.509L277 433.509L277 432.199ZM277 439.195L282.87 439.195L282.87 436.255L284.2 436.255L284.2 443.455L282.87 443.455L282.87 440.525L277 440.525L277 439.195ZM277 452.619C277 452.366 277.063 452.133 277.19 451.919C277.317 451.713 277.483 451.546 277.69 451.419C277.903 451.293 278.137 451.229 278.39 451.229L278.94 451.229L278.94 452.549L278.45 452.549C278.417 452.549 278.387 452.559 278.36 452.579C278.34 452.606 278.33 452.636 278.33 452.669L278.33 456.979C278.33 457.013 278.34 457.039 278.36 457.059C278.387 457.086 278.417 457.099 278.45 457.099L279.82 457.099C279.853 457.099 279.88 457.086 279.9 457.059C279.92 457.039 279.93 457.013 279.93 456.979L279.93 452.619C279.93 452.366 279.993 452.133 280.12 451.919C280.247 451.713 280.413 451.546 280.62 451.419C280.833 451.293 281.07 451.229 281.33 451.229L282.81 451.229C283.063 451.229 283.293 451.293 283.5 451.419C283.713 451.546 283.883 451.713 284.01 451.919C284.137 452.133 284.2 452.366 284.2 452.619L284.2 457.039C284.2 457.293 284.137 457.523 284.01 457.729C283.883 457.943 283.713 458.113 283.5 458.239C283.293 458.366 283.063 458.429 282.81 458.429L282.26 458.429L282.26 457.099L282.75 457.099C282.783 457.099 282.81 457.086 282.83 457.059C282.857 457.039 282.87 457.013 282.87 456.979L282.87 452.669C282.87 452.636 282.857 452.606 282.83 452.579C282.81 452.559 282.783 452.549 282.75 452.549L281.38 452.549C281.347 452.549 281.32 452.559 281.3 452.579C281.28 452.606 281.27 452.636 281.27 452.669L281.27 457.039C281.27 457.293 281.207 457.523 281.08 457.729C280.953 457.943 280.783 458.113 280.57 458.239C280.363 458.366 280.13 458.429 279.87 458.429L278.39 458.429C278.137 458.429 277.903 458.366 277.69 458.239C277.483 458.113 277.317 457.943 277.19 457.729C277.063 457.523 277 457.293 277 457.039L277 452.619ZM277 461.541L282.81 461.541C283.063 461.541 283.293 461.604 283.5 461.731C283.713 461.858 283.883 462.024 284.01 462.231C284.137 462.444 284.2 462.678 284.2 462.931L284.2 467.341C284.2 467.594 284.137 467.828 284.01 468.041C283.883 468.254 283.713 468.424 283.5 468.551C283.293 468.678 283.063 468.741 282.81 468.741L277 468.741L277 467.411L279.42 467.411L279.42 462.861L277 462.861L277 461.541ZM280.74 462.861L280.74 467.411L282.75 467.411C282.783 467.411 282.81 467.398 282.83 467.371C282.857 467.344 282.87 467.314 282.87 467.281L282.87 462.981C282.87 462.948 282.857 462.918 282.83 462.891C282.81 462.871 282.783 462.861 282.75 462.861L280.74 462.861ZM277 474.46L282.87 474.46L282.87 471.52L284.2 471.52L284.2 478.72L282.87 478.72L282.87 475.79L277 475.79L277 474.46ZM277 481.488L284.2 481.488L284.2 488.118L282.87 488.118L282.87 482.818L281.27 482.818L281.27 487.078L279.93 487.078L279.93 482.818L278.33 482.818L278.33 488.118L277 488.118L277 481.488ZM277 491.134L284.21 491.134L284.21 492.454L278.33 492.454L278.33 498.334L277 498.334L277 491.134ZM277 500.927L284.21 500.927L284.21 502.247L278.33 502.247L278.33 508.127L277 508.127L277 500.927ZM277 510.57L284.2 510.57L284.2 511.88L277 511.88L277 510.57ZM277 517.566L282.87 517.566L282.87 514.626L284.2 514.626L284.2 521.826L282.87 521.826L282.87 518.896L277 518.896L277 517.566ZM277 524.594L284.2 524.594L284.2 531.224L282.87 531.224L282.87 525.924L281.27 525.924L281.27 530.184L279.93 530.184L279.93 525.924L278.33 525.924L278.33 531.224L277 531.224L277 524.594Z" fill="#464646"/>
</svg>
