<svg width="13" height="16" viewBox="0 0 13 16" fill="none" xmlns="http://www.w3.org/2000/svg">
<g clip-path="url(#clip0_237_185)">
<path d="M0.572266 9.07878L11.2837 15.8642C11.458 15.974 11.6553 16.0317 11.8565 16.0315C12.0578 16.0313 12.2558 15.9733 12.4299 15.8632C12.604 15.7531 12.7483 15.5949 12.8485 15.4045C12.9486 15.2141 13.001 14.9982 13.0003 14.7786V1.28914C13.001 1.0696 12.9486 0.853857 12.8485 0.663442C12.7483 0.473027 12.604 0.314669 12.4299 0.204565C12.2558 0.0944613 12.0578 0.0364487 11.8565 0.0362554C11.6553 0.0360621 11.458 0.093802 11.2837 0.203571L0.572266 6.98898C0.415759 7.10462 0.287885 7.26023 0.199303 7.44239C0.110721 7.62456 0.0644531 7.82775 0.0644531 8.03396C0.0644531 8.24017 0.110721 8.4432 0.199303 8.62537C0.287885 8.80753 0.415759 8.96314 0.572266 9.07878Z" fill="#FF6B00"/>
</g>
<defs>
<clipPath id="clip0_237_185">
<rect width="13" height="16" fill="white"/>
</clipPath>
</defs>
</svg>
