{
	"asset":{
		"version":"2.0",
		"generator":"Created using the official Cinema 4D glTF Exporter 1.000x284978"
	},
	"scenes":[{
		"nodes":[0]
	}],
	"nodes":[{
		"name":"细分曲面_remesh",
		"translation":[0.0,
		0.0,
		0.0],
		"rotation":[-0.7071067690849304,
		0.0,
		0.0,
		-0.7071067690849304],
		"scale":[1.0,
		1.0,
		1.0],
		"mesh":0
	}],
	"meshes":[{
		"name":"细分曲面_remesh",
		"primitives":[{
			"attributes":{
				"POSITION":1,
				"NORMAL":2,
				"TEXCOORD_0":3
			},
			"indices":0
		}]
	}],
	"accessors":[{
		"bufferView":0,
		"type":"SCALAR",
		"componentType":5123,
		"count":38424,
		"byteOffset":0,
		"min":[0],
		"max":[6572]
	},
	{
		"bufferView":1,
		"type":"VEC3",
		"componentType":5126,
		"count":6573,
		"byteOffset":0,
		"min":[-684.7550048828125,
		-704.6757202148438,
		-691.4540405273438],
		"max":[658.8099975585938,
		678.71533203125,
		690.9277954101563]
	},
	{
		"bufferView":1,
		"type":"VEC3",
		"componentType":5126,
		"count":6573,
		"byteOffset":12,
		"min":[-0.9999284148216248,
		-0.9996641874313355,
		-0.9990739822387695],
		"max":[0.999882161617279,
		0.9998472332954407,
		0.9995131492614746]
	},
	{
		"bufferView":1,
		"type":"VEC2",
		"componentType":5126,
		"count":6573,
		"byteOffset":24,
		"min":[0.0,
		0.0],
		"max":[0.9985686540603638,
		0.9782639741897583]
	}],
	"bufferViews":[{
		"buffer":0,
		"byteOffset":0,
		"byteLength":76848,
		"target":34963
	},
	{
		"buffer":0,
		"byteOffset":76848,
		"byteLength":210336,
		"target":34962,
		"byteStride":32
	}],
	"buffers":[{
		"uri":"data:application/octet-stream;base64,",
		"byteLength":287184
	}]
}