<svg width="13" height="16" viewBox="0 0 13 16" fill="none" xmlns="http://www.w3.org/2000/svg">
<g clip-path="url(#clip0_460_4035)">
<path d="M12.4282 6.92122L1.71678 0.135812C1.5425 0.0260419 1.34522 -0.0316973 1.14397 -0.0315047C0.942728 -0.0313111 0.744665 0.0267018 0.570559 0.136805C0.396453 0.24691 0.252199 0.405102 0.152039 0.595516C0.0518793 0.785931 -0.000531796 1.00184 0.000181533 1.22138L0.000180354 14.7109C-0.000533014 14.9304 0.051878 15.1461 0.152038 15.3366C0.252197 15.527 0.396452 15.6853 0.570558 15.7954C0.744663 15.9055 0.942727 15.9636 1.14397 15.9637C1.34522 15.9639 1.5425 15.9062 1.71678 15.7964L12.4282 9.01102C12.5847 8.89538 12.7126 8.73977 12.8012 8.55761C12.8898 8.37544 12.936 8.17225 12.936 7.96604C12.936 7.75983 12.8898 7.5568 12.8012 7.37463C12.7126 7.19247 12.5847 7.03686 12.4282 6.92122Z" fill="#FF6B00"/>
</g>
<defs>
<clipPath id="clip0_460_4035">
<rect width="13" height="16" fill="white" transform="translate(13 16) rotate(-180)"/>
</clipPath>
</defs>
</svg>
