{
	"asset":{
		"version":"2.0",
		"generator":"Created using the official Cinema 4D glTF Exporter 1.000x284978"
	},
	"scenes":[{
		"nodes":[0]
	}],
	"nodes":[{
		"name":"球体.1",
		"mesh":0
	}],
	"meshes":[{
		"name":"球体.1",
		"primitives":[{
			"attributes":{
				"POSITION":1,
				"NORMAL":2,
				"TEXCOORD_0":3
			},
			"indices":0
		}]
	}],
	"accessors":[{
		"bufferView":0,
		"componentType":5123,
		"type":"SCALAR",
		"count":61440,
		"byteOffset":0,
		"min":[0],
		"max":[10592]
	},
	{
		"bufferView":1,
		"componentType":5126,
		"type":"VEC3",
		"count":10593,
		"byteOffset":0,
		"min":[-100.0444564819336,
		-100.20466613769531,
		-100.00065612792969],
		"max":[100.24559783935547,
		99.89470672607422,
		100.01680755615235]
	},
	{
		"bufferView":1,
		"componentType":5126,
		"type":"VEC3",
		"count":10593,
		"byteOffset":12,
		"min":[-0.9996257424354553,
		-0.9997779726982117,
		-0.9998524188995361],
		"max":[0.9996943473815918,
		0.9999970197677612,
		0.9999299645423889]
	},
	{
		"bufferView":1,
		"componentType":5126,
		"type":"VEC2",
		"count":10593,
		"byteOffset":24,
		"min":[0.0,
		0.0],
		"max":[1.0,
		0.8659999370574951]
	}],
	"bufferViews":[{
		"buffer":0,
		"byteOffset":0,
		"byteLength":122880,
		"target":34963
	},
	{
		"buffer":0,
		"byteOffset":122880,
		"byteLength":338976,
		"target":34962,
		"byteStride":32
	}],
	"buffers":[{
		"uri":"data:application/octet-stream;base64,",
		"byteLength":461856
	}]
}