{
	"asset":{
		"version":"2.0",
		"generator":"Created using the official Cinema 4D glTF Exporter 1.000x284978"
	},
	"scenes":[{
		"nodes":[0]
	}],
	"nodes":[{
		"name":"battery",
		"translation":[1.6857385635375977,
		3.301685094833374,
		0.0011550082126632333],
		"rotation":[0.0,
		0.0,
		0.0,
		-1.0],
		"scale":[1.0,
		1.0,
		1.0],
		"mesh":0
	}],
	"meshes":[{
		"name":"battery",
		"primitives":[{
			"attributes":{
				"POSITION":1,
				"NORMAL":2,
				"TEXCOORD_0":3
			},
			"indices":0
		}]
	}],
	"accessors":[{
		"bufferView":0,
		"componentType":5123,
		"type":"SCALAR",
		"count":6156,
		"byteOffset":0,
		"min":[0],
		"max":[1847]
	},
	{
		"bufferView":1,
		"componentType":5126,
		"type":"VEC3",
		"count":1848,
		"byteOffset":0,
		"min":[-6.635738372802734,
		2.1852571964263918,
		-4.951155185699463],
		"max":[3.264261484146118,
		4.793421745300293,
		4.948844909667969]
	},
	{
		"bufferView":1,
		"componentType":5126,
		"type":"VEC3",
		"count":1848,
		"byteOffset":12,
		"min":[-1.0,
		-1.0,
		-1.0],
		"max":[1.0,
		1.0,
		1.0]
	},
	{
		"bufferView":1,
		"componentType":5126,
		"type":"VEC2",
		"count":1848,
		"byteOffset":24,
		"min":[0.0,
		0.0],
		"max":[1.0,
		1.0]
	}],
	"bufferViews":[{
		"buffer":0,
		"byteOffset":0,
		"byteLength":12312,
		"target":34963
	},
	{
		"buffer":0,
		"byteOffset":12312,
		"byteLength":59136,
		"target":34962,
		"byteStride":32
	}],
	"buffers":[{
		"uri":"data:application/octet-stream;base64,",
		"byteLength":71448
	}]
}