{
	"asset":{
		"version":"2.0",
		"generator":"Created using the official Cinema 4D glTF Exporter 1.000x284978"
	},
	"scenes":[{
		"nodes":[0]
	}],
	"nodes":[{
		"name":"EPS",
		"mesh":0
	}],
	"meshes":[{
		"name":"EPS",
		"primitives":[{
			"attributes":{
				"POSITION":1,
				"NORMAL":2,
				"TEXCOORD_0":3
			},
			"indices":0
		}]
	}],
	"accessors":[{
		"bufferView":0,
		"componentType":5123,
		"type":"SCALAR",
		"count":1176,
		"byteOffset":0,
		"min":[0],
		"max":[599]
	},
	{
		"bufferView":1,
		"componentType":5126,
		"type":"VEC3",
		"count":600,
		"byteOffset":0,
		"min":[-4.949999809265137,
		8.886941909790039,
		-4.949999809265137],
		"max":[4.949999809265137,
		10.086999893188477,
		4.949999809265137]
	},
	{
		"bufferView":1,
		"componentType":5126,
		"type":"VEC3",
		"count":600,
		"byteOffset":12,
		"min":[-1.0,
		-1.0,
		-1.0],
		"max":[1.0,
		1.0,
		1.0]
	},
	{
		"bufferView":1,
		"componentType":5126,
		"type":"VEC2",
		"count":600,
		"byteOffset":24,
		"min":[-1.7763568394002506e-15,
		-7.105427357601002e-15],
		"max":[1.0,
		1.0]
	}],
	"bufferViews":[{
		"buffer":0,
		"byteOffset":0,
		"byteLength":2352,
		"target":34963
	},
	{
		"buffer":0,
		"byteOffset":2352,
		"byteLength":19200,
		"target":34962,
		"byteStride":32
	}],
	"buffers":[{
		"uri":"data:application/octet-stream;base64,",
		"byteLength":21552
	}]
}