{
	"asset":{
		"version":"2.0",
		"generator":"Created using the official Cinema 4D glTF Exporter 1.000x284978"
	},
	"scenes":[{
		"nodes":[0]
	}],
	"nodes":[{
		"translation":[0.16636788845062257,
		0.7734946608543396,
		-0.05439000576734543],
		"name":"obc",
		"rotation":[0.0,
		0.0,
		0.0,
		-1.0],
		"scale":[1.0,
		1.0,
		1.0],
		"mesh":0
	}],
	"meshes":[{
		"name":"obc",
		"primitives":[{
			"attributes":{
				"POSITION":1,
				"NORMAL":2,
				"TEXCOORD_0":3
			},
			"indices":0
		}]
	}],
	"accessors":[{
		"bufferView":0,
		"type":"SCALAR",
		"componentType":5123,
		"count":1068,
		"byteOffset":0,
		"min":[0],
		"max":[671]
	},
	{
		"bufferView":1,
		"type":"VEC3",
		"componentType":5126,
		"count":672,
		"byteOffset":0,
		"min":[-5.116367816925049,
		2.6044740676879885,
		-4.8956098556518559],
		"max":[4.783632278442383,
		3.826505422592163,
		5.004390239715576]
	},
	{
		"bufferView":1,
		"type":"VEC3",
		"componentType":5126,
		"count":672,
		"byteOffset":12,
		"min":[-1.0,
		-1.0,
		-1.0],
		"max":[1.0,
		1.0,
		1.0]
	},
	{
		"bufferView":1,
		"type":"VEC2",
		"componentType":5126,
		"count":672,
		"byteOffset":24,
		"min":[0.0,
		0.0],
		"max":[1.0,
		1.0]
	}],
	"bufferViews":[{
		"buffer":0,
		"byteOffset":0,
		"byteLength":2136,
		"target":34963
	},
	{
		"buffer":0,
		"byteOffset":2136,
		"byteLength":21504,
		"target":34962,
		"byteStride":32
	}],
	"buffers":[{
		"byteLength":23640,
		"uri":"data:application/octet-stream;base64,"
	}]
}